<!DOCTYPE svg PUBLIC "-//W3C//DTD SVG 1.1//EN" "http://www.w3.org/Graphics/SVG/1.1/DTD/svg11.dtd">
<!-- Uploaded to: SVG Repo, www.svgrepo.com, Transformed by: SVG Repo Mixer Tools -->
<svg width="800px" height="800px" viewBox="-102.4 -102.4 1228.80 1228.80" class="icon" version="1.1" xmlns="http://www.w3.org/2000/svg" fill="#059fff" stroke="#059fff" stroke-width="0.01024" transform="matrix(1, 0, 0, -1, 0, 0)rotate(0)">
<g id="SVGRepo_bgCarrier" stroke-width="0">
<path transform="translate(-102.4, -102.4), scale(38.4)" d="M16,24.96154601891574C18.819272828240734,24.538626100592403,21.899278554844294,25.886719103034896,24.19075667912481,24.19075667912481C26.719671745404003,22.31906308527205,28.298556224168202,19.14045267483419,28.10827927114932,16C27.92535340979604,12.980874449223176,25.423801298354405,10.85328650686698,23.25491835061569,8.745081649384312C21.13168453574922,6.681248814726333,18.95617175857072,4.061424516092113,16,4.230469882292184C13.106632113477653,4.395923879513637,11.660569814055584,7.565413101455318,9.529929728969435,9.529929728969435C7.230247243372343,11.650308723329623,4.030123831524438,12.974662606665508,3.2352148614039535,15.999999999999998C2.248160328014343,19.756622583679356,1.7392169818463503,24.850064709300682,4.918154841039218,27.081845158960775C8.118066980806763,29.328350649312334,12.133501866200818,25.541560502992503,16,24.96154601891574" fill="#7ed0ec" strokewidth="0"/>
</g>
<g id="SVGRepo_tracerCarrier" stroke-linecap="round" stroke-linejoin="round"/>
<g id="SVGRepo_iconCarrier">
<path d="M512 512m-10 0a10 10 0 1 0 20 0 10 10 0 1 0-20 0Z" fill="#0008fa"/>
<path d="M512 306.8c27.7 0 54.6 5.4 79.8 16.1 24.4 10.3 46.4 25.1 65.2 44s33.6 40.8 44 65.2c10.7 25.3 16.1 52.1 16.1 79.8 0 27.7-5.4 54.6-16.1 79.8-10.3 24.4-25.1 46.4-44 65.2-18.8 18.8-40.8 33.6-65.2 44-25.3 10.7-52.1 16.1-79.8 16.1-27.7 0-54.6-5.4-79.8-16.1-24.4-10.3-46.4-25.1-65.2-44-18.8-18.8-33.6-40.8-44-65.2-10.7-25.3-16.1-52.1-16.1-79.8 0-27.7 5.4-54.6 16.1-79.8 10.3-24.4 25.1-46.4 44-65.2s40.8-33.6 65.2-44c25.2-10.6 52.1-16.1 79.8-16.1m0-22c-125.4 0-227.1 101.7-227.1 227.1S386.6 739.1 512 739.1c125.4 0 227.1-101.7 227.1-227.1S637.4 284.8 512 284.8z" fill="#000000"/>
<path d="M512 618.7c-58.9 0-106.8-47.9-106.8-106.8S453.1 405.1 512 405.1 618.8 453 618.8 511.9 570.9 618.7 512 618.7z m0-193.5c-47.9 0-86.8 38.9-86.8 86.8s38.9 86.8 86.8 86.8 86.8-38.9 86.8-86.8-38.9-86.8-86.8-86.8z" fill="#0008fa"/>
<path d="M544.2 107.3l34.1 92.3 7.4 19.9 20.2 6.6c10.3 3.4 32.1 12.9 43.4 18.1l18.7 8.6 18.6-8.9 87.9-41.8 46.4 46.5-41.2 89.4-8.9 19.3 9.6 19c6.8 13.4 12.6 27.5 17.4 41.9l6.7 20.5 20.3 7.2 91.7 32.6v65.7l-92.3 34.1-19.9 7.4-6.6 20.2c-4.7 14.4-10.6 28.4-17.4 41.9l-9.8 19.3 9.3 19.5 41.8 87.9-46.5 46.5-89.1-41.3-19.3-8.9-19 9.6c-13.4 6.8-27.5 12.6-41.9 17.4l-20.5 6.7-7.2 20.3-32.6 91.7h-65.7l-34.1-92.3-7.4-19.9-20.2-6.6c-10.3-3.4-32.1-12.9-43.4-18.1L356 771l-18.6 8.9-87.9 41.8-46.4-46.5 41.2-89.3 8.9-19.3-9.6-19c-6.8-13.4-12.6-27.5-17.4-41.9l-6.7-20.5-20.3-7.2-91.7-32.6v-65.7l92.3-34.1 19.9-7.4 6.6-20.2c3.4-10.3 12.9-32.1 18.1-43.4l8.6-18.7-8.9-18.6-41.8-87.9 46.4-46.4 89.3 41.2 19.3 8.9 19-9.6c13.4-6.8 27.5-12.6 41.9-17.4l20.5-6.7 7.2-20.3 32.6-91.7h65.7m30.7-44.1H447.4l-43 121c-16.6 5.5-32.7 12.1-48.1 19.9l-117.2-54-90.1 90.1 55.2 116s-14.5 31.4-19.9 48.1l-121 44.7v127.4l121 43c5.5 16.6 12.1 32.6 19.9 48l-54 117.2 90.1 90.1 116-55.2s31.4 14.5 48.1 19.9l44.7 121h127.4l43-121c16.6-5.5 32.6-12.1 48-19.9l117.2 54 90.1-90.1-55.2-116c7.8-15.4 14.5-31.4 19.9-48l121-44.7V447.4l-121-43c-5.5-16.6-12.1-32.6-19.9-48l54-117.2-90.1-90.1-115.9 55.2s-31.5-14.5-48.1-19.9L574.9 63.3z" fill="#000000"/>
</g>
</svg>